<svg width="128" height="128" viewBox="0 0 128 128" fill="none" xmlns="http://www.w3.org/2000/svg">
<path d="M63 90C63.5523 90 64 90.4477 64 91V110C64 110.552 63.5523 111 63 111H52C51.4477 111 51 110.552 51 110V91C51 90.4477 51.4477 90 52 90H63ZM60 99C59.4477 99 59 99.4477 59 100V101C59 101.552 59.4477 102 60 102H61C61.5523 102 62 101.552 62 101V100C62 99.4477 61.5523 99 61 99H60Z" fill="black"/>
<path d="M102 17C102.552 17 103 17.4477 103 18V110C103 110.552 102.552 111 102 111H85.9951C85.6664 111 85.3588 110.839 85.1721 110.568L46.823 55.017C46.2656 54.2096 45 54.6041 45 55.5851V110C45 110.552 44.5523 111 44 111H26C25.4477 111 25 110.552 25 110L25 18C25 17.4477 25.4477 17 26 17H41.2835C41.6092 17 41.9144 17.1586 42.1017 17.425L81.1818 73.0364C81.7434 73.8355 83 73.4382 83 72.4614L83 18C83 17.4477 83.4477 17 84 17H102Z" fill="black"/>
</svg>
