<svg width="377" height="151" viewBox="0 0 377 151" fill="none" xmlns="http://www.w3.org/2000/svg">
<path d="M112.636 125.318C108.182 125.318 104.212 124.545 100.727 123C97.2424 121.424 94.4848 119.106 92.4545 116.045C90.4545 112.955 89.4545 109.106 89.4545 104.5C89.4545 100.621 90.1667 97.3636 91.5909 94.7273C93.0152 92.0909 94.9545 89.9697 97.4091 88.3636C99.8636 86.7576 102.652 85.5455 105.773 84.7273C108.924 83.9091 112.227 83.3333 115.682 83C119.742 82.5758 123.015 82.1818 125.5 81.8182C127.985 81.4242 129.788 80.8485 130.909 80.0909C132.03 79.3333 132.591 78.2121 132.591 76.7273V76.4545C132.591 73.5758 131.682 71.3485 129.864 69.7727C128.076 68.197 125.53 67.4091 122.227 67.4091C118.742 67.4091 115.97 68.1818 113.909 69.7273C111.848 71.2424 110.485 73.1515 109.818 75.4545L91.9091 74C92.8182 69.7576 94.6061 66.0909 97.2727 63C99.9394 59.8788 103.379 57.4848 107.591 55.8182C111.833 54.1212 116.742 53.2727 122.318 53.2727C126.197 53.2727 129.909 53.7273 133.455 54.6364C137.03 55.5455 140.197 56.9545 142.955 58.8636C145.742 60.7727 147.939 63.2273 149.545 66.2273C151.152 69.197 151.955 72.7576 151.955 76.9091V124H133.591V114.318H133.045C131.924 116.5 130.424 118.424 128.545 120.091C126.667 121.727 124.409 123.015 121.773 123.955C119.136 124.864 116.091 125.318 112.636 125.318ZM118.182 111.955C121.03 111.955 123.545 111.394 125.727 110.273C127.909 109.121 129.621 107.576 130.864 105.636C132.106 103.697 132.727 101.5 132.727 99.0455V91.6364C132.121 92.0303 131.288 92.3939 130.227 92.7273C129.197 93.0303 128.03 93.3182 126.727 93.5909C125.424 93.8333 124.121 94.0606 122.818 94.2727C121.515 94.4545 120.333 94.6212 119.273 94.7727C117 95.1061 115.015 95.6364 113.318 96.3636C111.621 97.0909 110.303 98.0758 109.364 99.3182C108.424 100.53 107.955 102.045 107.955 103.864C107.955 106.5 108.909 108.515 110.818 109.909C112.758 111.273 115.212 111.955 118.182 111.955ZM176.432 150.182C173.977 150.182 171.674 149.985 169.523 149.591C167.402 149.227 165.644 148.758 164.25 148.182L168.614 133.727C170.886 134.424 172.932 134.803 174.75 134.864C176.598 134.924 178.189 134.5 179.523 133.591C180.886 132.682 181.992 131.136 182.841 128.955L183.977 126L158.932 54.1818H179.295L193.75 105.455H194.477L209.068 54.1818H229.568L202.432 131.545C201.129 135.303 199.356 138.576 197.114 141.364C194.902 144.182 192.098 146.348 188.705 147.864C185.311 149.409 181.22 150.182 176.432 150.182ZM239.841 124V30.9091H259.205V65.9091H259.795C260.644 64.0303 261.871 62.1212 263.477 60.1818C265.114 58.2121 267.235 56.5758 269.841 55.2727C272.477 53.9394 275.75 53.2727 279.659 53.2727C284.75 53.2727 289.447 54.6061 293.75 57.2727C298.053 59.9091 301.492 63.8939 304.068 69.2273C306.644 74.5303 307.932 81.1818 307.932 89.1818C307.932 96.9697 306.674 103.545 304.159 108.909C301.674 114.242 298.28 118.288 293.977 121.045C289.705 123.773 284.917 125.136 279.614 125.136C275.856 125.136 272.659 124.515 270.023 123.273C267.417 122.03 265.28 120.47 263.614 118.591C261.947 116.682 260.674 114.758 259.795 112.818H258.932V124H239.841ZM258.795 89.0909C258.795 93.2424 259.371 96.8636 260.523 99.9545C261.674 103.045 263.341 105.455 265.523 107.182C267.705 108.879 270.356 109.727 273.477 109.727C276.629 109.727 279.295 108.864 281.477 107.136C283.659 105.379 285.311 102.955 286.432 99.8636C287.583 96.7424 288.159 93.1515 288.159 89.0909C288.159 85.0606 287.598 81.5151 286.477 78.4545C285.356 75.3939 283.705 73 281.523 71.2727C279.341 69.5455 276.659 68.6818 273.477 68.6818C270.326 68.6818 267.659 69.5151 265.477 71.1818C263.326 72.8485 261.674 75.2121 260.523 78.2727C259.371 81.3333 258.795 84.9394 258.795 89.0909ZM320.852 124V54.1818H339.625V66.3636H340.352C341.625 62.0303 343.761 58.7576 346.761 56.5455C349.761 54.303 353.216 53.1818 357.125 53.1818C358.095 53.1818 359.14 53.2424 360.261 53.3636C361.383 53.4848 362.367 53.6515 363.216 53.8636V71.0455C362.307 70.7727 361.049 70.5303 359.443 70.3182C357.837 70.1061 356.367 70 355.034 70C352.186 70 349.64 70.6212 347.398 71.8636C345.186 73.0758 343.428 74.7727 342.125 76.9545C340.852 79.1364 340.216 81.6515 340.216 84.5V124H320.852Z" fill="white"/>
<path d="M38 103C38.5523 103 39 103.448 39 104V123C39 123.552 38.5523 124 38 124H27C26.4477 124 26 123.552 26 123V104C26 103.448 26.4477 103 27 103H38ZM35 112C34.4477 112 34 112.448 34 113V114C34 114.552 34.4477 115 35 115H36C36.5523 115 37 114.552 37 114V113C37 112.448 36.5523 112 36 112H35Z" fill="white"/>
<path d="M77 30C77.5523 30 78 30.4477 78 31V123C78 123.552 77.5523 124 77 124H60.9951C60.6664 124 60.3588 123.839 60.1721 123.568L21.823 68.017C21.2656 67.2096 20 67.6041 20 68.5851V123C20 123.552 19.5523 124 19 124H1.00003C0.447744 124 2.86742e-05 123.552 2.85049e-05 123L3.06504e-07 31C1.37227e-07 30.4477 0.447715 30 1 30H16.2835C16.6092 30 16.9144 30.1586 17.1017 30.425L56.1818 86.0364C56.7434 86.8355 58 86.4382 58 85.4614L58 31C58 30.4477 58.4477 30 59 30H77Z" fill="white"/>
</svg>
